<svg width="272" height="30" viewBox="0 0 272 30" fill="none" xmlns="http://www.w3.org/2000/svg">
<path fill-rule="evenodd" clip-rule="evenodd" d="M92.8695 0.0463867L87.045 23.5776H86.9006L80.8835 0.0463867H75.2996L69.09 23.5776H68.9456L63.2654 0.0463867H57.6334L65.7685 29.5307H71.9782L78.0434 6.98387H78.1397L84.1086 29.5307H90.3183L98.4534 0.0463867H92.8695Z" fill="black"/>
<path fill-rule="evenodd" clip-rule="evenodd" d="M112.846 17.0166H102.015C102.255 13.8291 104.662 11.7666 107.791 11.7666C111.065 11.7197 113.038 14.1103 112.846 17.0166ZM117.707 17.5791C117.707 14.7197 116.793 12.376 114.915 10.5478C113.086 8.71972 110.631 7.8291 107.599 7.8291C100.474 7.8291 96.6716 13.3135 96.6716 18.8447C96.6716 22.1259 97.7788 24.7978 99.9931 26.8603C102.207 28.9228 105.096 29.954 108.658 29.954C111.45 29.954 114.29 29.3447 116.456 27.9384V23.0634C114.675 24.8916 111.883 25.9228 108.995 25.9228C105.096 25.9228 102.159 23.8134 101.919 20.2978H117.467C117.611 19.1728 117.707 18.3291 117.707 17.5791Z" fill="black"/>
<path fill-rule="evenodd" clip-rule="evenodd" d="M125.554 23.1088V0.0463867H119.826C120.067 3.09325 120.308 5.95262 120.308 8.29636V29.5307H125.603V24.0932C125.554 23.7651 125.554 23.4369 125.554 23.1088Z" fill="black"/>
<path fill-rule="evenodd" clip-rule="evenodd" d="M133.786 23.1088V0.0463867H128.057C128.298 3.09325 128.49 5.95262 128.49 8.29636V29.5307H133.786V23.9526C133.786 23.6713 133.786 23.3901 133.786 23.1088Z" fill="black"/>
<path fill-rule="evenodd" clip-rule="evenodd" d="M150.538 20.5322C150.538 24.0478 148.131 26.204 145.195 26.204C143.221 26.204 142.018 25.2666 142.018 23.7666C142.018 22.3603 143.173 21.4697 145.965 20.8134C148.131 20.3447 149.527 19.7353 150.49 18.6103V20.5322H150.538ZM155.785 23.1103V15.1416C155.785 10.6885 152.319 7.8291 147.024 7.8291C143.847 7.8291 140.574 8.86035 138.359 10.501V15.376C140.766 13.0322 143.703 11.6728 146.591 11.6728C149.046 11.6728 150.538 12.7978 150.538 14.4385C150.538 16.2666 148.949 16.9697 145.243 17.6728C139.707 18.6103 136.771 20.5322 136.771 24.0947C136.771 27.4697 139.611 29.954 143.654 29.954C146.398 29.954 148.613 28.829 150.394 26.3447H150.827L151.164 29.5322H155.785V23.4384C155.785 23.2978 155.785 23.2041 155.785 23.1103Z" fill="black"/>
<path fill-rule="evenodd" clip-rule="evenodd" d="M176.483 10.0776C175.039 8.62449 173.209 7.82761 170.995 7.82761C167.914 7.82761 165.411 9.28074 164.16 11.8589H163.678V0.0463867H157.95C158.191 2.57763 158.431 5.812 158.431 8.29636V29.5307H163.726V17.6245C163.726 14.3901 165.796 12.0932 168.973 12.0932C171.765 12.0932 173.45 13.9682 173.45 16.8745V29.5307H178.697V15.2807C178.553 13.2182 177.831 11.4839 176.483 10.0776Z" fill="black"/>
<path fill-rule="evenodd" clip-rule="evenodd" d="M197.663 17.0166H186.832C187.073 13.8291 189.48 11.7666 192.608 11.7666C195.93 11.7197 197.904 14.1103 197.663 17.0166ZM202.525 17.5791C202.525 14.7197 201.61 12.376 199.733 10.5478C197.904 8.71972 195.449 7.8291 192.416 7.8291C185.292 7.8291 181.489 13.3135 181.489 18.8447C181.489 22.1259 182.596 24.7978 184.81 26.8603C187.025 28.9228 189.913 29.954 193.475 29.954C196.267 29.954 199.107 29.3447 201.273 27.9384V23.0634C199.492 24.8916 196.7 25.9228 193.812 25.9228C189.913 25.9228 186.976 23.8134 186.736 20.2978H202.284C202.428 19.1728 202.525 18.3291 202.525 17.5791Z" fill="black"/>
<path fill-rule="evenodd" clip-rule="evenodd" d="M217.159 20.5322C217.159 24.0478 214.752 26.204 211.816 26.204C209.842 26.204 208.639 25.2666 208.639 23.7666C208.639 22.3603 209.794 21.4697 212.586 20.8134C214.752 20.3447 216.148 19.7353 217.111 18.6103V20.5322H217.159ZM222.406 23.1103V15.1416C222.406 10.6885 218.988 7.8291 213.645 7.8291C210.468 7.8291 207.195 8.86035 204.98 10.501V15.376C207.387 13.0322 210.324 11.6728 213.212 11.6728C215.619 11.6728 217.159 12.7978 217.159 14.4385C217.159 16.2666 215.571 16.9697 211.864 17.6728C206.328 18.6103 203.392 20.5322 203.392 24.0947C203.392 27.4697 206.232 29.954 210.276 29.954C213.019 29.954 215.234 28.829 217.015 26.3447H217.496L217.833 29.5322H222.454V23.4384C222.406 23.2978 222.406 23.2041 222.406 23.1103Z" fill="black"/>
<path fill-rule="evenodd" clip-rule="evenodd" d="M244.308 25.8749C242.335 25.8749 241.227 24.6562 241.227 22.3124V12.2812H247.822V8.29686H241.227V2.15625H238.05C237.665 6.98436 236.558 8.9531 233.381 8.9531H232.178V12.2812H235.932V22.9687C235.932 27.3749 238.772 29.9999 243.057 29.9999C244.934 29.9999 246.859 29.4374 248.015 28.6405V24.1874C246.859 25.2656 245.608 25.8749 244.308 25.8749Z" fill="black"/>
<path fill-rule="evenodd" clip-rule="evenodd" d="M230.445 23.1557V0.0463867H224.717C224.957 3.09325 225.15 5.95262 225.15 8.29636V29.5307H230.445V23.9994C230.445 23.7182 230.445 23.4369 230.445 23.1557Z" fill="black"/>
<path fill-rule="evenodd" clip-rule="evenodd" d="M268.761 10.0776C267.317 8.62449 265.488 7.82761 263.274 7.82761C260.193 7.82761 257.69 9.28074 256.438 11.8589H256.005V0.0463867H250.277C250.518 2.57763 250.758 5.812 250.758 8.29636V29.5307H256.053V17.6713C256.053 14.437 258.123 12.1401 261.3 12.1401C264.092 12.1401 265.777 14.0151 265.777 16.9213V29.5776H271.024V15.2807C270.879 13.2182 270.157 11.4839 268.761 10.0776Z" fill="black"/>
<path fill-rule="evenodd" clip-rule="evenodd" d="M19.0755 10.875V5.43748H27.355V10.875C27.355 14.25 25.8147 17.4374 23.2153 19.5468C20.6159 17.3906 19.0755 14.25 19.0755 10.875ZM40.2075 0V10.875C40.2075 14.6718 38.2821 18.2343 35.0088 20.3437L29.6656 23.8124L27.692 22.5468C30.8209 19.4999 32.6501 15.2812 32.6501 10.875V0.0468749V0H13.8286V0.0468749V10.875C13.8286 15.3281 15.6578 19.4999 18.7867 22.5468L16.8131 23.8124L11.4699 20.3437C8.19659 18.2343 6.27112 14.6718 6.27112 10.875V0.0468749V0H0.976074V0.0468749V10.875C0.976074 16.4062 3.81614 21.5624 8.53355 24.6093L16.8131 29.9999L23.2153 25.828L29.6656 29.9999L37.9451 24.6093C42.6625 21.5624 45.5026 16.4062 45.5026 10.875V0.0468749V0H40.2075Z" fill="black"/>
</svg>
